<?xml version="1.0" encoding="UTF-8" standalone="no"?>
<svg
   id="SVGRoot"
   width="1543px"
   height="320px"
   version="1.1"
   viewBox="0 0 1543 320"
   sodipodi:docname="logo_title_white2.svg"
   inkscape:version="1.1.1 (c3084ef, 2021-09-22)"
   xmlns:inkscape="http://www.inkscape.org/namespaces/inkscape"
   xmlns:sodipodi="http://sodipodi.sourceforge.net/DTD/sodipodi-0.dtd"
   xmlns="http://www.w3.org/2000/svg"
   xmlns:svg="http://www.w3.org/2000/svg">
  <defs
     id="defs7" />
  <sodipodi:namedview
     id="namedview5"
     pagecolor="#ffffff"
     bordercolor="#666666"
     borderopacity="1.0"
     inkscape:pageshadow="2"
     inkscape:pageopacity="0.0"
     inkscape:pagecheckerboard="0"
     showgrid="false"
     inkscape:zoom="0.73039533"
     inkscape:cx="771.5"
     inkscape:cy="159.50266"
     inkscape:window-width="1296"
     inkscape:window-height="847"
     inkscape:window-x="47"
     inkscape:window-y="25"
     inkscape:window-maximized="0"
     inkscape:current-layer="SVGRoot" />
  <path
     d="M 1051.6367,48.306729 V 241.95716 h 37.1577 V 48.306729 Z m -486.03344,3.133025 c -2.69936,0 -5.00273,1.043378 -6.90817,3.131253 -1.90546,2.087876 -2.85767,4.609917 -2.85767,7.567709 0,2.957792 0.95221,5.481698 2.85767,7.569573 1.90544,1.913855 4.20881,2.870922 6.90817,2.870922 2.69936,0 5.00103,-1.04515 6.90647,-3.133025 1.90545,-2.087875 2.85767,-4.609916 2.85767,-7.567709 0,-2.957792 -0.95222,-5.393522 -2.85767,-7.307376 -1.90544,-2.087876 -4.20711,-3.131254 -6.90647,-3.131254 z m 306.29193,7.828041 V 241.95688 h 86.22143 c 21.75357,0 38.26804,-4.2616 49.54168,-12.78731 11.4326,-8.69945 17.1472,-21.05212 17.1472,-37.05978 0,-11.30902 -2.6989,-20.793 -8.0977,-28.44823 -5.3988,-7.82954 -12.8617,-13.39689 -22.389,-16.70301 6.9866,-4.00173 12.3862,-9.48119 16.1972,-16.44108 3.9697,-6.95962 5.9544,-14.87611 5.9544,-23.74958 0,-14.615131 -5.4783,-26.186059 -16.4344,-34.710928 -10.79724,-8.525521 -26.35979,-12.789167 -46.68426,-12.789167 h -81.45782 z m -87.03805,16.703001 v 29.752224 h -22.8645 v 11.22326 h 22.8645 v 88.99568 c 0,11.65761 2.93873,20.79207 8.81354,27.40336 5.87515,6.43765 14.21003,9.65549 25.00727,9.65549 4.92244,0 9.60806,-0.78252 14.05353,-2.34839 4.60479,-1.73993 8.41526,-4.17556 11.43182,-7.30738 l -5.00257,-9.1352 c -5.08116,5.04567 -11.51178,7.56771 -19.29263,7.56771 -7.62179,0 -13.41723,-2.26124 -17.38635,-6.78494 -3.81089,-4.69772 -5.71692,-11.48331 -5.71692,-20.35678 v -87.69076 h 39.53799 V 105.72181 H 796.76483 V 75.969584 h -11.90904 z m 125.38515,15.137093 h 38.34711 c 9.52722,0 16.7526,1.82773 21.67444,5.48151 4.92243,3.479761 7.38335,8.786511 7.38335,15.920051 0,7.13354 -2.46092,12.52632 -7.38335,16.1801 -4.92243,3.65378 -12.14722,5.48151 -21.67444,5.48151 H 910.24229 V 91.107709 Z m 264.71231,8.35234 c -10.3207,0 -20.4027,1.478671 -30.2471,4.436551 -9.6864,2.95779 -18.0227,7.13308 -25.009,12.52632 l 13.338,28.4473 c 4.6049,-4.00173 10.1619,-7.13187 16.6727,-9.39357 6.6691,-2.43583 13.418,-3.65556 20.2462,-3.65556 9.8445,0 17.2273,2.4375 22.15,7.30924 4.9223,4.69772 7.385,11.48332 7.385,20.35679 h -29.5354 c -18.7371,0 -32.6307,3.7399 -41.6816,11.22139 -8.8917,7.48159 -13.3381,17.74788 -13.3381,30.7971 0,8.17748 1.9043,15.48476 5.7153,21.92269 3.8109,6.43764 9.289,11.48331 16.4344,15.13709 7.3044,3.65378 15.879,5.47965 25.7236,5.47965 19.0544,0 32.0753,-6.52461 39.0616,-19.57383 v 17.48595 h 34.7752 v -80.12128 c 0,-20.87875 -5.3191,-36.45206 -15.9581,-46.71714 -10.639,-10.43937 -25.8834,-15.658131 -45.7324,-15.658131 z m 281.6147,0 c -12.8617,0 -24.5326,3.131911 -35.0124,9.395441 -10.321,6.08961 -18.4982,14.70088 -24.5327,25.83652 -5.8751,10.96135 -8.8118,23.31616 -8.8118,37.06165 0,13.91886 3.0174,26.3585 9.0517,37.31984 6.034,10.96135 14.6089,19.57476 25.7235,25.83839 11.1154,6.0896 23.8955,9.13333 38.3454,9.13333 23.1826,0 40.8088,-7.56798 52.8761,-22.70471 l -19.7672,-23.48766 c -4.4461,4.69772 -9.289,8.17683 -14.5291,10.43844 -5.0811,2.08788 -10.9571,3.13126 -17.6263,3.13126 -9.6862,0 -17.7844,-2.52204 -24.2952,-7.56771 -6.5103,-5.04567 -10.639,-11.91953 -12.3854,-20.6187 h 96.9395 c 0.4764,-6.7856 0.7145,-10.43938 0.7145,-10.96135 0,-14.61512 -2.937,-27.40336 -8.8118,-38.3647 -5.7164,-11.13565 -13.6554,-19.66052 -23.8181,-25.57554 -10.1627,-5.91568 -21.5163,-8.873011 -34.0608,-8.873011 z m -193.4366,2.088061 v 31.31813 h 63.5942 l -65.2624,84.55988 v 24.53067 h 114.3267 v -31.31813 h -67.4051 l 65.2624,-84.55801 v -24.53254 z m -949.49064,3.13126 c -11.11539,0 -21.19894,2.95742 -30.2498,8.873 -8.89181,5.74166 -15.79905,13.83311 -20.72089,24.27248 v -32.10201 h -11.43182 v 186.86483 h 11.90903 v -81.68719 c 4.92244,10.09171 11.82908,18.007 20.72089,23.74865 8.89179,5.56764 18.81628,8.35234 29.77259,8.35234 11.59174,0 22.07085,-2.87101 31.439,-8.61267 9.36816,-5.91568 16.67436,-14.09316 21.91433,-24.53253 5.39879,-10.61368 8.09772,-22.61896 8.09772,-36.01678 -1e-5,-13.39689 -2.699,-25.31456 -8.09772,-35.75393 -5.23997,-10.43938 -12.54531,-18.61751 -21.91433,-24.53254 -9.36815,-5.91567 -19.84726,-8.873 -31.439,-8.873 z m 147.14466,0 c -11.74996,0 -22.38899,2.95742 -31.91622,8.873 -9.36817,5.91568 -16.75261,14.17984 -22.15166,24.79352 -5.3988,10.43938 -8.09772,22.27036 -8.09772,35.49388 0,13.22352 2.69901,25.14305 8.09772,35.75579 5.39879,10.43938 12.78349,18.61751 22.15166,24.53254 9.52723,5.91567 20.1654,8.873 31.91622,8.873 11.74996,0 22.30989,-2.95742 31.67804,-8.873 9.52723,-5.91568 16.99079,-14.09316 22.38899,-24.53254 5.39879,-10.61367 8.09772,-22.5332 8.09772,-35.75579 0,-13.22352 -2.69901,-25.0545 -8.09772,-35.49388 -5.39879,-10.61368 -12.86176,-18.87756 -22.38899,-24.79352 -9.36815,-5.91568 -19.92808,-8.873 -31.67804,-8.873 z m 221.95042,0 c -11.59174,0 -21.67359,2.69653 -30.24809,8.09023 -8.41569,5.39371 -14.76721,12.87492 -19.05447,22.44466 v -29.49217 h -11.43182 v 136.23386 h 11.90903 v -72.55366 c 0,-16.18104 4.20773,-29.05596 12.62359,-38.62476 8.41568,-9.56974 19.92722,-14.35414 34.5362,-14.35414 12.70269,0 22.54807,4.00256 29.53527,12.00621 7.14542,8.00355 10.71812,19.66051 10.71812,34.97191 v 78.55537 h 11.90904 v -79.59838 c 0,-18.61657 -4.5262,-32.88403 -13.57715,-42.80144 -9.05095,-9.9174 -21.35716,-14.87704 -36.91801,-14.87704 z m -123.07139,1.0431 V 241.9565 h 11.90904 V 105.72265 Z m -246.73823,10.70036 c 9.52722,0 18.10174,2.43573 25.72352,7.30737 7.62179,4.87165 13.5763,11.65762 17.86355,20.35679 4.44606,8.69945 6.66889,18.61657 6.66889,29.75222 0,11.13564 -2.22291,21.05305 -6.66889,29.75222 -4.28725,8.69945 -10.24176,15.48663 -17.86355,20.35865 -7.62178,4.87174 -16.1963,7.30737 -25.72352,7.30737 -9.52724,0 -18.10174,-2.43573 -25.72353,-7.30737 -7.46297,-4.87174 -13.41723,-11.65855 -17.86355,-20.35865 -4.28726,-8.69945 -6.43131,-18.61658 -6.43131,-29.75222 0,-11.13565 2.14405,-21.05305 6.43131,-29.75222 4.44607,-8.69945 10.40084,-15.48477 17.86355,-20.35679 7.62179,-4.87174 16.19629,-7.30737 25.72353,-7.30737 z m 147.8592,0 c 9.52723,0 18.02348,2.43573 25.48619,7.30737 7.62178,4.87174 13.5763,11.65762 17.86355,20.35679 4.44607,8.69945 6.6689,18.61657 6.6689,29.75222 0,11.13564 -2.22291,21.05305 -6.6689,29.75222 -4.28725,8.69945 -10.24177,15.48663 -17.86355,20.35865 -7.46297,4.87174 -15.95896,7.30737 -25.48619,7.30737 -9.52723,0 -18.10174,-2.43573 -25.72352,-7.30737 -7.46297,-4.87174 -13.41724,-11.65855 -17.86356,-20.35865 -4.28724,-8.69945 -6.43131,-18.61658 -6.43131,-29.75222 0,-11.13565 2.14407,-21.05305 6.43131,-29.75222 4.44607,-8.69945 10.40084,-15.48477 17.86356,-20.35679 7.62178,-4.87174 16.19629,-7.30737 25.72352,-7.30737 z m 996.02088,13.83217 c 8.2569,0 15.2426,2.69653 20.9589,8.09024 5.7164,5.21968 9.21,12.26813 10.4801,21.1416 h -63.117 c 1.2702,-9.04749 4.7638,-16.18197 10.4799,-21.40166 5.7161,-5.21968 12.7826,-7.8299 21.1981,-7.8299 z m -546.56531,34.71093 h 45.01616 c 20.48355,0 30.72617,7.56975 30.72617,22.70657 0,7.65551 -2.62016,13.30927 -7.86014,16.96305 -5.08115,3.65379 -12.70353,5.47965 -22.8662,5.47965 h -45.01616 v -45.14937 z m 263.75961,18.2689 h 25.4862 v 14.35415 c -2.0642,6.26362 -5.5578,11.04896 -10.4799,14.35414 -4.9223,3.13181 -10.5599,4.69688 -16.9117,4.69688 -6.5103,0 -11.67,-1.47867 -15.4809,-4.43655 -3.6522,-3.13181 -5.4795,-7.307 -5.4795,-12.52632 0,-10.96134 7.6227,-16.44295 22.8663,-16.44295 z"
     fill="#fff"
     id="path2"
     style="fill:#ffffff;stroke-width:0.890436" />
  <path
     d="M 121.41868,110.53513 93.484877,155.6808 76.724987,133.10832 c -6.199038,11.00795 -30.128226,37.15925 -30.128226,65.50185 0,41.74191 33.49909,75.57741 74.822569,75.57741 41.32282,0 74.82257,-33.83693 74.82257,-75.57741 0,-28.3426 -23.92913,-54.4939 -30.12823,-65.50185 l -16.75989,22.57248 z m 0,73.36253 c 0,0 27.93381,28.91346 27.93381,50.78861 0,9.44754 -9.22785,22.57249 -27.93381,22.57249 -18.70531,0 -27.933803,-13.12495 -27.933803,-22.57249 0,-21.12495 27.933803,-50.78861 27.933803,-50.78861 z"
     fill="#cccccc"
     stroke-width="11.2298"
     id="path172" />
</svg>
