<svg id="SVGRoot" width="1543px" height="320px" version="1.1" viewBox="0 0 1543 320" xmlns="http://www.w3.org/2000/svg">
 <path d="m1051.6 48.307v193.65h37.158v-193.65zm-486.03 3.133c-2.6994 0-5.0027 1.0434-6.9082 3.1313-1.9055 2.0879-2.8577 4.6099-2.8577 7.5677s0.95221 5.4817 2.8577 7.5696c1.9054 1.9139 4.2088 2.8709 6.9082 2.8709s5.001-1.0452 6.9065-3.133c1.9054-2.0879 2.8577-4.6099 2.8577-7.5677 0-2.9578-0.95222-5.3935-2.8577-7.3074-1.9054-2.0879-4.2071-3.1313-6.9065-3.1313zm306.29 7.828v182.69h86.221c21.754 0 38.268-4.2616 49.542-12.787 11.433-8.6994 17.147-21.052 17.147-37.06 0-11.309-2.6989-20.793-8.0977-28.448-5.3988-7.8295-12.862-13.397-22.389-16.703 6.9866-4.0017 12.386-9.4812 16.197-16.441 3.9697-6.9596 5.9544-14.876 5.9544-23.75 0-14.615-5.4783-26.186-16.434-34.711-10.797-8.5255-26.36-12.789-46.684-12.789h-81.458zm-87.038 16.703v29.752h-22.864v11.223h22.864v88.996c0 11.658 2.9387 20.792 8.8135 27.403 5.8752 6.4376 14.21 9.6555 25.007 9.6555 4.9224 0 9.6081-0.78252 14.054-2.3484 4.6048-1.7399 8.4153-4.1756 11.432-7.3074l-5.0026-9.1352c-5.0812 5.0457-11.512 7.5677-19.293 7.5677-7.6218 0-13.417-2.2612-17.386-6.7849-3.8109-4.6977-5.7169-11.483-5.7169-20.357v-87.691h39.538v-11.223h-39.538v-29.752h-11.909zm125.39 15.137h38.347c9.5272 0 16.753 1.8277 21.674 5.4815 4.9224 3.4798 7.3834 8.7865 7.3834 15.92s-2.4609 12.526-7.3834 16.18-12.147 5.4815-21.674 5.4815h-38.347v-43.063zm264.71 8.3523c-10.321 0-20.403 1.4787-30.247 4.4366-9.6864 2.9578-18.023 7.1331-25.009 12.526l13.338 28.447c4.6049-4.0017 10.162-7.1319 16.673-9.3936 6.6691-2.4358 13.418-3.6556 20.246-3.6556 9.8445 0 17.227 2.4375 22.15 7.3092 4.9223 4.6977 7.385 11.483 7.385 20.357h-29.535c-18.737 0-32.631 3.7399-41.682 11.221-8.8917 7.4816-13.338 17.748-13.338 30.797 0 8.1775 1.9043 15.485 5.7153 21.923 3.8109 6.4376 9.289 11.483 16.434 15.137 7.3044 3.6538 15.879 5.4796 25.724 5.4796 19.054 0 32.075-6.5246 39.062-19.574v17.486h34.775v-80.121c0-20.879-5.3191-36.452-15.958-46.717-10.639-10.439-25.883-15.658-45.732-15.658zm281.61 0c-12.862 0-24.533 3.1319-35.012 9.3954-10.321 6.0896-18.498 14.701-24.533 25.837-5.8751 10.961-8.8118 23.316-8.8118 37.062 0 13.919 3.0174 26.358 9.0517 37.32 6.034 10.961 14.609 19.575 25.724 25.838 11.115 6.0896 23.896 9.1333 38.345 9.1333 23.183 0 40.809-7.568 52.876-22.705l-19.767-23.488c-4.4461 4.6977-9.289 8.1768-14.529 10.438-5.0811 2.0879-10.957 3.1313-17.626 3.1313-9.6862 0-17.784-2.522-24.295-7.5677-6.5103-5.0457-10.639-11.92-12.385-20.619h96.94c0.4764-6.7856 0.7145-10.439 0.7145-10.961 0-14.615-2.937-27.403-8.8118-38.365-5.7164-11.136-13.655-19.661-23.818-25.576-10.163-5.9157-21.516-8.873-34.061-8.873zm-193.44 2.0881v31.318h63.594l-65.262 84.56v24.531h114.33v-31.318h-67.405l65.262-84.558v-24.533zm-949.49 3.1313c-11.115 0-21.199 2.9574-30.25 8.873-8.8918 5.7417-15.799 13.833-20.721 24.272v-32.102h-11.432v186.86h11.909v-81.687c4.9224 10.092 11.829 18.007 20.721 23.749 8.8918 5.5676 18.816 8.3523 29.773 8.3523 11.592 0 22.071-2.871 31.439-8.6127 9.3682-5.9157 16.674-14.093 21.914-24.533 5.3988-10.614 8.0977-22.619 8.0977-36.017-1e-5 -13.397-2.699-25.315-8.0977-35.754-5.24-10.439-12.545-18.618-21.914-24.533-9.3682-5.9157-19.847-8.873-31.439-8.873zm147.14 0c-11.75 0-22.389 2.9574-31.916 8.873-9.3682 5.9157-16.753 14.18-22.152 24.794-5.3988 10.439-8.0977 22.27-8.0977 35.494s2.699 25.143 8.0977 35.756c5.3988 10.439 12.783 18.618 22.152 24.533 9.5272 5.9157 20.165 8.873 31.916 8.873 11.75 0 22.31-2.9574 31.678-8.873 9.5272-5.9157 16.991-14.093 22.389-24.533 5.3988-10.614 8.0977-22.533 8.0977-35.756 0-13.224-2.699-25.054-8.0977-35.494-5.3988-10.614-12.862-18.878-22.389-24.794-9.3682-5.9157-19.928-8.873-31.678-8.873zm221.95 0c-11.592 0-21.674 2.6965-30.248 8.0902-8.4157 5.3937-14.767 12.875-19.054 22.445v-29.492h-11.432v136.23h11.909v-72.554c0-16.181 4.2077-29.056 12.624-38.625 8.4157-9.5697 19.927-14.354 34.536-14.354 12.703 0 22.548 4.0026 29.535 12.006 7.1454 8.0036 10.718 19.661 10.718 34.972v78.555h11.909v-79.598c0-18.617-4.5262-32.884-13.577-42.801-9.051-9.9174-21.357-14.877-36.918-14.877zm-123.07 1.0431v136.23h11.909v-136.23zm-246.74 10.7c9.5272 0 18.102 2.4357 25.724 7.3074 7.6218 4.8716 13.576 11.658 17.864 20.357 4.4461 8.6994 6.6689 18.617 6.6689 29.752 0 11.136-2.2229 21.053-6.6689 29.752-4.2872 8.6994-10.242 15.487-17.864 20.359-7.6218 4.8717-16.196 7.3074-25.724 7.3074-9.5272 0-18.102-2.4357-25.724-7.3074-7.463-4.8717-13.417-11.659-17.864-20.359-4.2873-8.6994-6.4313-18.617-6.4313-29.752 0-11.136 2.144-21.053 6.4313-29.752 4.4461-8.6994 10.401-15.485 17.864-20.357 7.6218-4.8717 16.196-7.3074 25.724-7.3074zm147.86 0c9.5272 0 18.023 2.4357 25.486 7.3074 7.6218 4.8717 13.576 11.658 17.864 20.357 4.4461 8.6994 6.6689 18.617 6.6689 29.752 0 11.136-2.2229 21.053-6.6689 29.752-4.2872 8.6994-10.242 15.487-17.864 20.359-7.463 4.8717-15.959 7.3074-25.486 7.3074s-18.102-2.4357-25.724-7.3074c-7.463-4.8717-13.417-11.659-17.864-20.359-4.2872-8.6994-6.4313-18.617-6.4313-29.752 0-11.136 2.1441-21.053 6.4313-29.752 4.4461-8.6994 10.401-15.485 17.864-20.357 7.6218-4.8717 16.196-7.3074 25.724-7.3074zm996.02 13.832c8.2569 0 15.243 2.6965 20.959 8.0902 5.7164 5.2197 9.21 12.268 10.48 21.142h-63.117c1.2702-9.0475 4.7638-16.182 10.48-21.402 5.7161-5.2197 12.783-7.8299 21.198-7.8299zm-546.57 34.711h45.016c20.484 0 30.726 7.5698 30.726 22.707 0 7.6555-2.6202 13.309-7.8601 16.963-5.0812 3.6538-12.704 5.4796-22.866 5.4796h-45.016v-45.149zm263.76 18.269h25.486v14.354c-2.0642 6.2636-5.5578 11.049-10.48 14.354-4.9223 3.1318-10.56 4.6969-16.912 4.6969-6.5103 0-11.67-1.4787-15.481-4.4366-3.6522-3.1318-5.4795-7.307-5.4795-12.526 0-10.961 7.6227-16.443 22.866-16.443z" fill="#fff" stroke-width=".89044"/>
 <path d="m121.42 110.54-27.934 45.146-16.76-22.572c-6.199 11.008-30.128 37.159-30.128 65.502 0 41.742 33.499 75.577 74.823 75.577 41.323 0 74.823-33.837 74.823-75.577 0-28.343-23.929-54.494-30.128-65.502l-16.76 22.572zm0 73.363s27.934 28.913 27.934 50.789c0 9.4475-9.2278 22.572-27.934 22.572-18.705 0-27.934-13.125-27.934-22.572 0-21.125 27.934-50.789 27.934-50.789z" fill="#ccc" stroke-width="11.23"/>
</svg>
